<?xml version="1.0" encoding="UTF-8"?>
<svg width="120" height="40" viewBox="0 0 120 40" fill="none" xmlns="http://www.w3.org/2000/svg">
  <path d="M20 10c-5.5 0-10 4.5-10 10s4.5 10 10 10 10-4.5 10-10-4.5-10-10-10zm0 18c-4.4 0-8-3.6-8-8s3.6-8 8-8 8 3.6 8 8-3.6 8-8 8z" fill="#fff"/>
  <path d="M20 16c-2.2 0-4 1.8-4 4s1.8 4 4 4 4-1.8 4-4-1.8-4-4-4zm0 6c-1.1 0-2-.9-2-2s.9-2 2-2 2 .9 2 2-.9 2-2 2z" fill="#fff"/>
  <path d="M45 20l5-10h4l-7 14v6h-4v-6l-7-14h4l5 10z" fill="#fff"/>
  <path d="M65 30h-3V10h3v20zm17.5-10c0 5.5-2.9 10-9.4 10-6.4 0-9.4-4.5-9.4-10s2.9-10 9.4-10c6.4 0 9.4 4.5 9.4 10z" fill="#fff"/>
</svg> 