<?xml version="1.0" encoding="UTF-8"?>
<svg width="120" height="40" viewBox="0 0 120 40" fill="none" xmlns="http://www.w3.org/2000/svg">
  <path d="M35.7 20.1c0 2.8 1.3 5.3 3.4 6.9-.4 1.2-1 2.3-1.7 3.3-1.1 1.6-2.3 3.2-4 3.2s-2.4-1-4.5-1-2.9 1-4.6 1c-1.9 0-3.3-1.7-4.4-3.3-2.4-3.5-4.2-9.8-1.8-14.1.9-1.6 2.5-2.6 4.3-2.6 1.7-.1 3.3 1.1 4.3 1.1s3-1.4 5-1.2c.9 0 3.2.3 4.7 2.5-4.3 2.3-3.6 8.2.7 9.2zm-7.2-16.8c.8-1 1.4-2.4 1.2-3.8-1.3.1-2.8.9-3.7 1.9-.8 1-1.5 2.3-1.3 3.7 1.4.1 2.9-.8 3.8-1.8z" fill="#fff"/>
  <path d="M55 30h-3V10h3v20zm17.5-10c0 5.5-2.9 10-9.4 10-6.4 0-9.4-4.5-9.4-10s2.9-10 9.4-10c6.4 0 9.4 4.5 9.4 10zm-3 0c0-4-1.8-7.5-6.4-7.5S56.7 16 56.7 20s1.8 7.5 6.4 7.5 6.4-3.5 6.4-7.5zm21.5 0c0 5.5-2.9 10-9.4 10-6.4 0-9.4-4.5-9.4-10s2.9-10 9.4-10c6.4 0 9.4 4.5 9.4 10zm-3 0c0-4-1.8-7.5-6.4-7.5S75.2 16 75.2 20s1.8 7.5 6.4 7.5S88 24 88 20z" fill="#fff"/>
</svg> 