<?xml version="1.0" encoding="UTF-8"?>
<svg width="120" height="40" viewBox="0 0 120 40" fill="none" xmlns="http://www.w3.org/2000/svg">
  <path d="M20 10c-5.5 0-10 4.5-10 10s4.5 10 10 10 10-4.5 10-10-4.5-10-10-10zm0 15c-2.8 0-5-2.2-5-5s2.2-5 5-5 5 2.2 5 5-2.2 5-5 5z" fill="#fff"/>
  <path d="M50 20c0-5.5-4.5-10-10-10s-10 4.5-10 10 4.5 10 10 10 10-4.5 10-10zm-10 5c-2.8 0-5-2.2-5-5s2.2-5 5-5 5 2.2 5 5-2.2 5-5 5z" fill="#fff"/>
  <path d="M60 20c0 5.5 4.5 10 10 10s10-4.5 10-10-4.5-10-10-10-10 4.5-10 10zm10-5c2.8 0 5 2.2 5 5s-2.2 5-5 5-5-2.2-5-5 2.2-5 5-5z" fill="#fff"/>
  <path d="M90 20c0-5.5-4.5-10-10-10s-10 4.5-10 10 4.5 10 10 10 10-4.5 10-10zm-10 5c-2.8 0-5-2.2-5-5s2.2-5 5-5 5 2.2 5 5-2.2 5-5 5z" fill="#fff"/>
</svg> 